<svg width="247" height="112" viewBox="0 0 247 112" fill="none" xmlns="http://www.w3.org/2000/svg">
<path d="M25.8479 43.6227C23.9809 44.7857 21.2874 45.3673 17.7676 45.3673C13.2377 45.3673 9.44237 43.9134 6.38164 41.0057C3.35151 38.0674 1.83644 34.2721 1.83644 29.6198C1.83644 24.9063 3.3056 21.065 6.2439 18.0961C9.21282 15.1272 13.0693 13.6428 17.8135 13.6428C21.3027 13.6428 23.9809 14.2243 25.8479 15.3874V22.1822C23.5524 20.7743 20.9967 20.0703 18.1808 20.0703C15.7016 20.0703 13.6203 20.9426 11.9369 22.6872C10.2535 24.4012 9.41177 26.7121 9.41177 29.6198C9.41177 32.4663 10.2535 34.7312 11.9369 36.4146C13.6203 38.0674 15.7934 38.8938 18.4562 38.8938C21.3333 38.8938 23.7972 38.1593 25.8479 36.6901V43.6227ZM68.3745 29.4362C68.3745 34.1803 66.9971 38.0215 64.2425 40.9598C61.5184 43.8675 57.8761 45.3214 53.3156 45.3214C48.7245 45.3214 45.067 43.8675 42.3429 40.9598C39.6188 38.0521 38.2568 34.2109 38.2568 29.4362C38.2568 24.692 39.6188 20.8661 42.3429 17.9584C45.0976 15.0201 48.7551 13.5509 53.3156 13.5509C57.9067 13.5509 61.5643 15.0048 64.2884 17.9125C67.0124 20.8202 68.3745 24.6614 68.3745 29.4362ZM47.8522 22.5495C46.5055 24.2329 45.8321 26.5285 45.8321 29.4362C45.8321 32.3439 46.5055 34.6547 47.8522 36.3687C49.1989 38.0521 51.0201 38.8938 53.3156 38.8938C55.6112 38.8938 57.4323 38.0521 58.7791 36.3687C60.1258 34.6547 60.7991 32.3439 60.7991 29.4362C60.7991 26.5285 60.1258 24.2329 58.7791 22.5495C57.4323 20.8355 55.6112 19.9785 53.3156 19.9785C51.0201 19.9785 49.1989 20.8355 47.8522 22.5495ZM92.0337 19.7948H88.5445V28.5179H91.896C94.9567 28.5179 96.4871 27.0182 96.4871 24.0186C96.4871 22.7025 96.0892 21.6772 95.2934 20.9426C94.4976 20.1774 93.4111 19.7948 92.0337 19.7948ZM88.5445 45H81.4742V14.056H92.1715C95.6301 14.056 98.4001 14.9742 100.481 16.8106C102.593 18.6471 103.649 21.0344 103.649 23.9727C103.649 28.3802 101.767 31.4256 98.0022 33.109L105.853 45H97.4053L90.7023 34.2568H88.5445V45ZM137.176 45H117.939V14.056H136.992V19.703H125.056V26.7274H135.707V32.3285H125.056V39.3529H137.176V45Z" fill="#78909C"/>
<path d="M8.42315 99.6792C7.75047 99.6792 7.01929 99.6207 6.22962 99.5037C5.43995 99.3867 4.65759 99.2332 3.88254 99.0431C3.12212 98.853 2.44213 98.6409 1.84256 98.407C1.243 98.173 0.796982 97.9317 0.504511 97.6831L1.90837 93.8225C2.21546 94.1588 2.75653 94.4879 3.53158 94.8096C4.32125 95.1313 5.17673 95.3945 6.09801 95.5992C7.01929 95.804 7.83821 95.9063 8.55476 95.9063C9.79776 95.9063 10.9018 95.7382 11.867 95.4018C12.8321 95.0509 13.5853 94.5244 14.1263 93.8225C14.682 93.1206 14.9599 92.2358 14.9599 91.1683C14.9599 90.0423 14.587 88.9382 13.8412 87.8561C13.11 86.774 11.962 85.7211 10.3973 84.6974C9.06658 83.7761 7.91132 82.8402 6.93155 81.8897C5.95177 80.9245 5.19135 79.879 4.65028 78.753C4.12383 77.6269 3.86061 76.362 3.86061 74.9581C3.86061 73.0717 4.30663 71.4778 5.19866 70.1763C6.10532 68.8748 7.32638 67.8877 8.86185 67.215C10.4119 66.5423 12.1448 66.206 14.0605 66.206C15.83 66.206 17.3362 66.3888 18.5792 66.7544C19.8368 67.1053 20.802 67.5367 21.4746 68.0485L19.9611 71.7117C19.3762 71.1122 18.528 70.6588 17.4166 70.3517C16.3198 70.0446 15.2743 69.8911 14.2799 69.8911C13.2562 69.8911 12.3203 70.03 11.4722 70.3079C10.624 70.5711 9.94399 71.0098 9.43217 71.624C8.92035 72.2382 8.6425 73.0498 8.59863 74.0588C8.58401 74.8485 8.80336 75.682 9.25669 76.5594C9.72464 77.4222 10.3315 78.2558 11.0773 79.06C11.8231 79.8497 12.6128 80.537 13.4463 81.122C14.7917 82.0432 15.9469 82.9572 16.9121 83.8639C17.8773 84.7705 18.6157 85.743 19.1276 86.7813C19.654 87.8195 19.9172 89.004 19.9172 90.3348C19.9172 92.4406 19.4054 94.1881 18.3818 95.5773C17.3727 96.9519 15.9981 97.9829 14.2579 98.6702C12.5324 99.3429 10.5874 99.6792 8.42315 99.6792ZM38.6626 99.6792C36.4106 99.6792 34.7216 98.8603 33.5956 97.2225C32.4842 95.57 31.9285 93.3107 31.9285 90.4445C31.9285 88.2802 32.2502 86.2475 32.8937 84.3465C33.5517 82.4308 34.4876 80.7418 35.7014 79.2794C36.9298 77.817 38.3921 76.6691 40.0884 75.8356C41.7848 75.002 43.6858 74.5853 45.7916 74.5853C46.5228 74.5853 47.3417 74.6584 48.2484 74.8046C49.155 74.9508 49.9739 75.1263 50.7051 75.331L53.4032 74.5853L50.0251 99.3282H45.8135L46.1645 95.0728C45.2871 96.3597 44.205 97.4491 42.9181 98.3412C41.6458 99.2332 40.2274 99.6792 38.6626 99.6792ZM39.7155 96.1257C40.4028 96.1257 41.0609 95.9721 41.6897 95.6651C42.3332 95.3433 42.94 94.9193 43.5103 94.3928C44.0953 93.8517 44.6364 93.2376 45.1336 92.5502C45.6454 91.8483 46.106 91.1245 46.5155 90.3787L48.2264 78.3142C47.2759 77.9925 46.2596 77.8317 45.1774 77.8317C43.3495 77.8317 41.8067 78.4605 40.5491 79.7181C39.2915 80.9757 38.3556 82.5331 37.7414 84.3903C37.1272 86.2329 36.8201 88.0754 36.8201 89.918C36.8201 90.9417 36.9005 91.9287 37.0614 92.8793C37.2222 93.8298 37.5074 94.6122 37.9168 95.2263C38.3409 95.8259 38.9405 96.1257 39.7155 96.1257ZM65.6358 99.2624L70.3958 64.2537H75.1338L70.3739 99.2624H65.6358ZM91.6956 99.767C89.7946 99.767 88.3688 99.2844 87.4183 98.3192C86.4824 97.3394 86.0144 95.7674 86.0144 93.6031C86.0144 93.1498 86.0583 92.4698 86.146 91.5632C86.2338 90.6565 86.3507 89.5744 86.497 88.3167C86.6725 87.0445 86.8699 85.6333 87.0892 84.0832C87.3086 82.5185 87.5279 80.9392 87.7473 79.3452C87.9813 77.7512 88.1933 76.267 88.3834 74.8923H93.1434C93.0995 75.1702 93.0191 75.7186 92.9021 76.5375C92.7851 77.3564 92.6462 78.3216 92.4853 79.4329C92.3391 80.5297 92.1855 81.663 92.0247 82.8329C91.8638 83.9882 91.7176 85.063 91.586 86.0574C91.4543 87.0372 91.352 87.8049 91.2789 88.3606C91.1473 89.4574 91.0449 90.4006 90.9718 91.1903C90.8987 91.9799 90.8621 92.6161 90.8621 93.0986C90.8621 94.1077 91.0741 94.8096 91.4982 95.2044C91.9223 95.5992 92.6023 95.7967 93.5382 95.7967C94.2694 95.7967 95.0517 95.5627 95.8853 95.0947C96.7334 94.6122 97.567 93.9687 98.3859 93.1644C99.2194 92.3455 99.9652 91.4389 100.623 90.4445L102.707 74.8923H107.445L104.177 99.3282H99.8117L100.228 94.7657C99.1171 96.2427 97.8229 97.4491 96.3459 98.385C94.8836 99.3063 93.3335 99.767 91.6956 99.767ZM125.587 99.6792C123.335 99.6792 121.653 98.8603 120.542 97.2225C119.431 95.57 118.875 93.3107 118.875 90.4445C118.875 87.9731 119.394 85.5017 120.432 83.0303C121.12 81.4071 122.048 79.9594 123.218 78.6871C124.388 77.4149 125.784 76.4132 127.408 75.682C129.045 74.9508 130.881 74.5853 132.913 74.5853C133.337 74.5853 133.784 74.6072 134.251 74.6511C134.734 74.6803 135.239 74.7461 135.765 74.8485L137.213 64.2537H141.907L137.213 99.3282H132.957L133.308 94.9193C132.709 95.8113 132.007 96.6156 131.202 97.3321C130.413 98.0487 129.543 98.619 128.592 99.0431C127.642 99.4672 126.64 99.6792 125.587 99.6792ZM126.64 96.1038C127.298 96.1038 127.956 95.9283 128.614 95.5773C129.287 95.2263 129.938 94.7584 130.566 94.1735C131.195 93.5885 131.773 92.9597 132.299 92.287C132.826 91.5997 133.279 90.927 133.659 90.269L135.304 78.3581C134.383 78.0072 133.374 77.8317 132.277 77.8317C130.464 77.8317 128.914 78.4605 127.627 79.7181C126.34 80.9757 125.375 82.5331 124.732 84.3903C124.088 86.2475 123.766 88.0901 123.766 89.918C123.766 91.044 123.854 92.075 124.03 93.0109C124.205 93.9468 124.498 94.6999 124.907 95.2702C125.331 95.8259 125.909 96.1038 126.64 96.1038Z" fill="#42A5F5"/>
<g clip-path="url(#clip0_38_24)">
<path d="M206.762 11.4251C180.307 11.4251 158.864 32.8686 158.864 59.3236V99.5665H199.106C225.557 99.5665 247.005 78.123 247.005 51.668V11.4251H206.762ZM223.16 62.0841H209.523V75.7216H196.341V62.0841H182.704V48.9027H196.341V35.2652H209.523L209.542 48.9027H223.155V62.0841H223.16Z" fill="#42A5F5"/>
<path opacity="0.3" d="M158.864 59.3236V99.5665L196.341 62.0889H182.704V48.9075H196.341V35.2701H209.523L209.542 48.8833L247 11.4251H206.757C180.307 11.4251 158.864 32.8686 158.864 59.3236Z" fill="white"/>
</g>
<defs>
<clipPath id="clip0_38_24">
<rect width="88.1365" height="88.1365" fill="white" transform="translate(158.864 11.4251)"/>
</clipPath>
</defs>
</svg>
