<svg width="76" height="34" viewBox="0 0 76 34" fill="none" xmlns="http://www.w3.org/2000/svg">
<path d="M7.89763 13.5792C7.32717 13.9345 6.50421 14.1122 5.42874 14.1122C4.04467 14.1122 2.88504 13.668 1.94986 12.7796C1.02403 11.8818 0.56111 10.7222 0.56111 9.3007C0.56111 7.86052 1.01 6.68686 1.90778 5.77973C2.8149 4.8726 3.99324 4.41904 5.44277 4.41904C6.50888 4.41904 7.32717 4.59672 7.89763 4.95209V7.0282C7.19624 6.59802 6.41536 6.38293 5.55499 6.38293C4.79749 6.38293 4.16157 6.64945 3.64722 7.18251C3.13287 7.70621 2.87569 8.41228 2.87569 9.3007C2.87569 10.1704 3.13287 10.8625 3.64722 11.3768C4.16157 11.8818 4.82555 12.1343 5.63916 12.1343C6.51823 12.1343 7.27106 11.9099 7.89763 11.461V13.5792ZM20.8913 9.24459C20.8913 10.6941 20.4704 11.8678 19.6288 12.7656C18.7965 13.654 17.6836 14.0982 16.2902 14.0982C14.8874 14.0982 13.7699 13.654 12.9375 12.7656C12.1052 11.8771 11.6891 10.7035 11.6891 9.24459C11.6891 7.79505 12.1052 6.62607 12.9375 5.73765C13.7792 4.83987 14.8968 4.39098 16.2902 4.39098C17.693 4.39098 18.8105 4.8352 19.6428 5.72362C20.4751 6.61205 20.8913 7.7857 20.8913 9.24459ZM14.6209 7.14042C14.2094 7.65478 14.0037 8.35616 14.0037 9.24459C14.0037 10.133 14.2094 10.8391 14.6209 11.3628C15.0324 11.8771 15.5888 12.1343 16.2902 12.1343C16.9916 12.1343 17.548 11.8771 17.9595 11.3628C18.371 10.8391 18.5767 10.133 18.5767 9.24459C18.5767 8.35616 18.371 7.65478 17.9595 7.14042C17.548 6.61672 16.9916 6.35487 16.2902 6.35487C15.5888 6.35487 15.0324 6.61672 14.6209 7.14042ZM28.1202 6.29876H27.0541V8.96403H28.0781C29.0133 8.96403 29.4809 8.50579 29.4809 7.58931C29.4809 7.18718 29.3593 6.8739 29.1162 6.64945C28.873 6.41566 28.541 6.29876 28.1202 6.29876ZM27.0541 14H24.8938V4.54529H28.1623C29.219 4.54529 30.0654 4.82584 30.7013 5.38695C31.3466 5.94807 31.6692 6.67751 31.6692 7.57529C31.6692 8.92195 31.0941 9.85246 29.9438 10.3668L32.3425 14H29.7614L27.7134 10.7175H27.0541V14ZM41.9131 14H36.0355V4.54529H41.857V6.2707H38.2098V8.41695H41.4642V10.1283H38.2098V12.2746H41.9131V14Z" fill="#78909C"/>
<path d="M2.57363 30.3179C2.36809 30.3179 2.14469 30.3001 1.90341 30.2643C1.66213 30.2286 1.42309 30.1817 1.18628 30.1236C0.95394 30.0655 0.746173 30.0007 0.562981 29.9292C0.379789 29.8577 0.243512 29.784 0.15415 29.708L0.583087 28.5285C0.676917 28.6312 0.842237 28.7318 1.07905 28.83C1.32032 28.9283 1.58171 29.0088 1.8632 29.0713C2.14469 29.1339 2.3949 29.1652 2.61384 29.1652C2.99363 29.1652 3.33097 29.1138 3.62586 29.011C3.92076 28.9038 4.15087 28.7429 4.31619 28.5285C4.48597 28.314 4.57087 28.0437 4.57087 27.7175C4.57087 27.3734 4.45693 27.0361 4.22906 26.7055C4.00565 26.3748 3.65491 26.0531 3.17682 25.7404C2.77022 25.4589 2.41724 25.1729 2.11788 24.8825C1.81852 24.5876 1.58618 24.2681 1.42086 23.9241C1.26 23.58 1.17958 23.1935 1.17958 22.7646C1.17958 22.1882 1.31586 21.7012 1.58841 21.3035C1.86543 20.9059 2.23852 20.6043 2.70767 20.3987C3.18129 20.1932 3.71076 20.0904 4.29608 20.0904C4.83672 20.0904 5.29693 20.1463 5.67672 20.258C6.06098 20.3652 6.35587 20.497 6.56141 20.6534L6.09896 21.7727C5.92023 21.5895 5.66108 21.451 5.32151 21.3572C4.9864 21.2633 4.66693 21.2164 4.3631 21.2164C4.05033 21.2164 3.76438 21.2589 3.50523 21.3437C3.24608 21.4242 3.03831 21.5582 2.88193 21.7459C2.72554 21.9335 2.64065 22.1815 2.62724 22.4898C2.62278 22.7311 2.6898 22.9858 2.82831 23.2539C2.97129 23.5175 3.15671 23.7722 3.38459 24.0179C3.61246 24.2592 3.85374 24.4692 4.10842 24.6479C4.51948 24.9294 4.87246 25.2087 5.16736 25.4857C5.46225 25.7627 5.68789 26.0598 5.84428 26.3771C6.00513 26.6943 6.08555 27.0562 6.08555 27.4628C6.08555 28.1062 5.92917 28.6402 5.6164 29.0646C5.3081 29.4846 4.8881 29.7996 4.3564 30.0096C3.82916 30.2152 3.23491 30.3179 2.57363 30.3179ZM11.8131 30.3179C11.125 30.3179 10.6089 30.0677 10.2649 29.5673C9.92529 29.0624 9.75551 28.3721 9.75551 27.4963C9.75551 26.835 9.8538 26.214 10.0504 25.6331C10.2515 25.0478 10.5374 24.5317 10.9083 24.0849C11.2836 23.6381 11.7304 23.2874 12.2487 23.0327C12.767 22.778 13.3479 22.6507 13.9913 22.6507C14.2147 22.6507 14.4649 22.673 14.7419 22.7177C15.0189 22.7624 15.2691 22.816 15.4925 22.8785L16.3169 22.6507L15.2848 30.2107H13.998L14.1052 28.9105C13.8371 29.3037 13.5065 29.6365 13.1133 29.9091C12.7246 30.1817 12.2912 30.3179 11.8131 30.3179ZM12.1348 29.2322C12.3448 29.2322 12.5458 29.1853 12.738 29.0914C12.9346 28.9931 13.12 28.8636 13.2942 28.7027C13.473 28.5374 13.6383 28.3497 13.7902 28.1397C13.9466 27.9253 14.0873 27.7041 14.2124 27.4762L14.7352 23.79C14.4448 23.6917 14.1342 23.6426 13.8036 23.6426C13.2451 23.6426 12.7737 23.8347 12.3895 24.219C12.0052 24.6032 11.7192 25.0791 11.5316 25.6465C11.3439 26.2095 11.2501 26.7725 11.2501 27.3355C11.2501 27.6482 11.2747 27.9498 11.3238 28.2403C11.373 28.5307 11.4601 28.7697 11.5852 28.9574C11.7148 29.1406 11.898 29.2322 12.1348 29.2322ZM20.0545 30.1906L21.5089 19.494H22.9565L21.5022 30.1906H20.0545ZM28.0169 30.3447C27.436 30.3447 27.0004 30.1973 26.71 29.9024C26.424 29.603 26.281 29.1227 26.281 28.4614C26.281 28.3229 26.2944 28.1152 26.3212 27.8381C26.348 27.5611 26.3838 27.2305 26.4285 26.8462C26.4821 26.4575 26.5424 26.0263 26.6094 25.5527C26.6764 25.0746 26.7435 24.5921 26.8105 24.105C26.882 23.618 26.9468 23.1645 27.0049 22.7445H28.4592C28.4458 22.8294 28.4212 22.9969 28.3855 23.2472C28.3498 23.4974 28.3073 23.7923 28.2582 24.1318C28.2135 24.4669 28.1666 24.8132 28.1174 25.1707C28.0683 25.5237 28.0236 25.8521 27.9834 26.1559C27.9432 26.4553 27.9119 26.6898 27.8895 26.8596C27.8493 27.1947 27.818 27.4829 27.7957 27.7242C27.7734 27.9655 27.7622 28.1598 27.7622 28.3073C27.7622 28.6156 27.827 28.8301 27.9566 28.9507C28.0861 29.0713 28.2939 29.1316 28.5799 29.1316C28.8033 29.1316 29.0423 29.0602 29.297 28.9172C29.5561 28.7697 29.8108 28.5731 30.061 28.3274C30.3157 28.0772 30.5436 27.8002 30.7447 27.4963L31.3814 22.7445H32.829L31.8304 30.2107H30.4967L30.624 28.8166C30.2844 29.2679 29.889 29.6365 29.4377 29.9225C28.9909 30.204 28.5173 30.3447 28.0169 30.3447ZM38.3721 30.3179C37.684 30.3179 37.1702 30.0677 36.8306 29.5673C36.4911 29.0624 36.3213 28.3721 36.3213 27.4963C36.3213 26.7412 36.4799 25.9861 36.7971 25.231C37.0071 24.735 37.2908 24.2927 37.6483 23.904C38.0057 23.5152 38.4324 23.2092 38.9284 22.9858C39.4288 22.7624 39.9896 22.6507 40.6106 22.6507C40.7402 22.6507 40.8765 22.6574 41.0195 22.6708C41.1669 22.6797 41.3211 22.6998 41.4819 22.7311L41.9243 19.494H43.3585L41.9243 30.2107H40.624L40.7313 28.8636C40.5481 29.1361 40.3336 29.3819 40.0879 29.6008C39.8466 29.8197 39.5807 29.994 39.2903 30.1236C38.9999 30.2531 38.6938 30.3179 38.3721 30.3179ZM38.6938 29.2255C38.8949 29.2255 39.096 29.1719 39.297 29.0646C39.5026 28.9574 39.7014 28.8144 39.8935 28.6357C40.0856 28.457 40.2621 28.2648 40.423 28.0593C40.5838 27.8493 40.7223 27.6438 40.8385 27.4427L41.3412 23.8034C41.0597 23.6962 40.7514 23.6426 40.4163 23.6426C39.8622 23.6426 39.3886 23.8347 38.9954 24.219C38.6022 24.6032 38.3073 25.0791 38.1107 25.6465C37.9141 26.214 37.8158 26.777 37.8158 27.3355C37.8158 27.6795 37.8427 27.9945 37.8963 28.2805C37.9499 28.5664 38.0392 28.7965 38.1644 28.9708C38.2939 29.1406 38.4704 29.2255 38.6938 29.2255Z" fill="#42A5F5"/>
<g clip-path="url(#clip0_35_3)">
<path d="M63.1745 3.49084C55.0914 3.49084 48.5395 10.0427 48.5395 18.1259V30.4218H60.8354C68.917 30.4218 75.4704 23.8699 75.4704 15.7867V3.49084H63.1745ZM68.1848 18.9693H64.0179V23.1361H59.9904V18.9693H55.8236V14.9418H59.9904V10.775H64.0179L64.0239 14.9418H68.1833V18.9693H68.1848Z" fill="#42A5F5"/>
<path opacity="0.3" d="M48.5395 18.1259V30.4218L59.9905 18.9708H55.8236V14.9433H59.9905V10.7765H64.0179L64.0239 14.9359L75.4689 3.49084H63.173C55.0914 3.49084 48.5395 10.0427 48.5395 18.1259Z" fill="white"/>
</g>
<defs>
<clipPath id="clip0_35_3">
<rect width="26.9294" height="26.9294" fill="white" transform="translate(48.5395 3.49084)"/>
</clipPath>
</defs>
</svg>
